<mxfile host="app.diagrams.net" modified="2023-01-20T08:42:33.730Z" agent="5.0 (Windows NT 10.0; Win64; x64) AppleWebKit/537.36 (KHTML, like Gecko) Chrome/109.0.0.0 Safari/537.36" etag="IKxfQXCCYia4yHODxmEx" version="20.8.8" type="github">
  <diagram id="6a731a19-8d31-9384-78a2-239565b7b9f0" name="Page-1">
    <mxGraphModel dx="2998" dy="1216" grid="1" gridSize="10" guides="1" tooltips="1" connect="1" arrows="1" fold="1" page="1" pageScale="1" pageWidth="827" pageHeight="1169" background="none" math="0" shadow="0">
      <root>
        <mxCell id="0" />
        <mxCell id="1" parent="0" />
        <mxCell id="YoIVaU23-7nhwGgL-xl8-2267" value="NMS" style="shape=mxgraph.cisco.storage.cloud;html=1;dashed=0;strokeColor=#23445D;fillColor=#ffffff;strokeWidth=2;fontFamily=Helvetica;fontSize=20;fontColor=#000000;align=center;fontStyle=1;opacity=40;" parent="1" vertex="1">
          <mxGeometry x="-730" y="300" width="460" height="371" as="geometry" />
        </mxCell>
        <mxCell id="YoIVaU23-7nhwGgL-xl8-2312" value="DC" style="shape=mxgraph.cisco.storage.cloud;html=1;dashed=0;strokeColor=#23445D;fillColor=#ffffff;strokeWidth=2;fontFamily=Helvetica;fontSize=20;fontColor=#000000;align=center;fontStyle=1;opacity=20;verticalAlign=middle;" parent="1" vertex="1">
          <mxGeometry x="-60" y="193" width="860" height="697" as="geometry" />
        </mxCell>
        <mxCell id="YoIVaU23-7nhwGgL-xl8-2318" style="edgeStyle=none;rounded=0;orthogonalLoop=1;jettySize=auto;html=1;exitX=0.5;exitY=0;exitDx=0;exitDy=0;exitPerimeter=0;fontSize=20;fontColor=#000000;endArrow=none;endFill=0;entryX=0.5;entryY=0.98;entryDx=0;entryDy=0;entryPerimeter=0;" parent="1" source="YoIVaU23-7nhwGgL-xl8-2272" target="YoIVaU23-7nhwGgL-xl8-2275" edge="1">
          <mxGeometry relative="1" as="geometry" />
        </mxCell>
        <mxCell id="YoIVaU23-7nhwGgL-xl8-2272" value="FwDrNMS" style="shape=mxgraph.cisco.security.pix_firewall;sketch=0;html=1;pointerEvents=1;dashed=0;fillColor=#036897;strokeColor=#ffffff;strokeWidth=2;verticalLabelPosition=bottom;verticalAlign=top;align=center;outlineConnect=0;fontSize=20;fontColor=#000000;" parent="1" vertex="1">
          <mxGeometry x="-538.5" y="521" width="77" height="51" as="geometry" />
        </mxCell>
        <mxCell id="YoIVaU23-7nhwGgL-xl8-2275" value="NMSUt123-G/D" style="shape=mxgraph.cisco.switches.workgroup_switch;html=1;dashed=0;fillColor=#10739E;strokeColor=#ffffff;strokeWidth=2;verticalLabelPosition=bottom;verticalAlign=top;fontFamily=Helvetica;fontSize=20;fontColor=#000000;" parent="1" vertex="1">
          <mxGeometry x="-550.5" y="381" width="101" height="50" as="geometry" />
        </mxCell>
        <mxCell id="YoIVaU23-7nhwGgL-xl8-2317" style="edgeStyle=none;rounded=0;orthogonalLoop=1;jettySize=auto;html=1;exitX=0.12;exitY=0.9;exitDx=0;exitDy=0;exitPerimeter=0;fontSize=20;fontColor=#000000;endArrow=none;endFill=0;entryX=1;entryY=0;entryDx=0;entryDy=0;entryPerimeter=0;" parent="1" source="YoIVaU23-7nhwGgL-xl8-2277" target="YoIVaU23-7nhwGgL-xl8-2275" edge="1">
          <mxGeometry relative="1" as="geometry">
            <mxPoint x="-269.99999999999955" y="120" as="targetPoint" />
          </mxGeometry>
        </mxCell>
        <mxCell id="YoIVaU23-7nhwGgL-xl8-2277" value="GUT20/21" style="shape=mxgraph.cisco.routers.router;html=1;dashed=0;fillColor=#10739E;strokeColor=#ffffff;strokeWidth=2;verticalLabelPosition=bottom;verticalAlign=top;fontFamily=Helvetica;fontSize=20;fontColor=#000000;" parent="1" vertex="1">
          <mxGeometry x="309.5" y="160" width="78" height="53" as="geometry" />
        </mxCell>
        <mxCell id="YoIVaU23-7nhwGgL-xl8-2304" style="edgeStyle=none;rounded=0;orthogonalLoop=1;jettySize=auto;html=1;exitX=0.5;exitY=0;exitDx=0;exitDy=0;exitPerimeter=0;fontSize=20;fontColor=#000000;endArrow=none;endFill=0;" parent="1" source="YoIVaU23-7nhwGgL-xl8-2278" target="YoIVaU23-7nhwGgL-xl8-2277" edge="1">
          <mxGeometry relative="1" as="geometry" />
        </mxCell>
        <mxCell id="YoIVaU23-7nhwGgL-xl8-2278" value="RUT-C9K-1/2" style="shape=mxgraph.cisco.routers.router;html=1;dashed=0;fillColor=#10739E;strokeColor=#ffffff;strokeWidth=2;verticalLabelPosition=bottom;verticalAlign=top;fontFamily=Helvetica;fontSize=20;fontColor=#000000;" parent="1" vertex="1">
          <mxGeometry x="309.5" y="367" width="78" height="53" as="geometry" />
        </mxCell>
        <mxCell id="YoIVaU23-7nhwGgL-xl8-2293" style="edgeStyle=orthogonalEdgeStyle;rounded=0;orthogonalLoop=1;jettySize=auto;html=1;exitX=0.5;exitY=0;exitDx=0;exitDy=0;exitPerimeter=0;entryX=0.5;entryY=1;entryDx=0;entryDy=0;entryPerimeter=0;fontSize=20;fontColor=#000000;endArrow=none;endFill=0;" parent="1" source="YoIVaU23-7nhwGgL-xl8-2279" target="YoIVaU23-7nhwGgL-xl8-2278" edge="1">
          <mxGeometry relative="1" as="geometry" />
        </mxCell>
        <mxCell id="YoIVaU23-7nhwGgL-xl8-2300" style="edgeStyle=none;rounded=0;orthogonalLoop=1;jettySize=auto;html=1;entryX=0.12;entryY=0.9;entryDx=0;entryDy=0;entryPerimeter=0;fontSize=20;fontColor=#000000;endArrow=none;endFill=0;exitX=0.694;exitY=0;exitDx=0;exitDy=0;exitPerimeter=0;" parent="1" source="YoIVaU23-7nhwGgL-xl8-2279" target="YoIVaU23-7nhwGgL-xl8-2285" edge="1">
          <mxGeometry relative="1" as="geometry" />
        </mxCell>
        <mxCell id="z-lyO9U3jf9EHW0gN1C3-4" value="" style="edgeStyle=none;rounded=0;orthogonalLoop=1;jettySize=auto;html=1;endArrow=none;endFill=0;" parent="1" source="YoIVaU23-7nhwGgL-xl8-2279" target="YoIVaU23-7nhwGgL-xl8-2281" edge="1">
          <mxGeometry relative="1" as="geometry" />
        </mxCell>
        <mxCell id="z-lyO9U3jf9EHW0gN1C3-5" value="" style="edgeStyle=none;rounded=0;orthogonalLoop=1;jettySize=auto;html=1;endArrow=none;endFill=0;" parent="1" source="YoIVaU23-7nhwGgL-xl8-2279" target="YoIVaU23-7nhwGgL-xl8-2281" edge="1">
          <mxGeometry relative="1" as="geometry" />
        </mxCell>
        <mxCell id="funw83YCfUhnmGR257uU-3" style="rounded=0;orthogonalLoop=1;jettySize=auto;html=1;exitX=0;exitY=0.98;exitDx=0;exitDy=0;exitPerimeter=0;entryX=0.98;entryY=0.5;entryDx=0;entryDy=0;entryPerimeter=0;endArrow=none;endFill=0;" edge="1" parent="1" source="YoIVaU23-7nhwGgL-xl8-2279" target="funw83YCfUhnmGR257uU-2">
          <mxGeometry relative="1" as="geometry" />
        </mxCell>
        <mxCell id="YoIVaU23-7nhwGgL-xl8-2279" value="eVPN&lt;br&gt;50 PCS" style="shape=mxgraph.cisco.switches.workgroup_switch;html=1;dashed=0;fillColor=#10739E;strokeColor=#ffffff;strokeWidth=2;verticalLabelPosition=bottom;verticalAlign=top;fontFamily=Helvetica;fontSize=20;fontColor=#000000;" parent="1" vertex="1">
          <mxGeometry x="298" y="550" width="101" height="50" as="geometry" />
        </mxCell>
        <mxCell id="YoIVaU23-7nhwGgL-xl8-2296" style="edgeStyle=none;rounded=0;orthogonalLoop=1;jettySize=auto;html=1;exitX=0.5;exitY=0;exitDx=0;exitDy=0;exitPerimeter=0;fontSize=20;fontColor=#000000;endArrow=none;endFill=0;entryX=0.5;entryY=0.98;entryDx=0;entryDy=0;entryPerimeter=0;" parent="1" source="YoIVaU23-7nhwGgL-xl8-2281" target="YoIVaU23-7nhwGgL-xl8-2279" edge="1">
          <mxGeometry relative="1" as="geometry">
            <mxPoint x="316.80303030303" y="750" as="targetPoint" />
          </mxGeometry>
        </mxCell>
        <mxCell id="YoIVaU23-7nhwGgL-xl8-2281" value="vPC (old leaf)&lt;br&gt;cca 100 PCS" style="shape=mxgraph.cisco.switches.workgroup_switch;html=1;dashed=0;fillColor=#10739E;strokeColor=#ffffff;strokeWidth=2;verticalLabelPosition=bottom;verticalAlign=top;fontFamily=Helvetica;fontSize=20;fontColor=#000000;" parent="1" vertex="1">
          <mxGeometry x="298" y="708" width="101" height="50" as="geometry" />
        </mxCell>
        <mxCell id="YoIVaU23-7nhwGgL-xl8-2298" style="edgeStyle=none;rounded=0;orthogonalLoop=1;jettySize=auto;html=1;exitX=0;exitY=0.5;exitDx=0;exitDy=0;exitPerimeter=0;entryX=0.98;entryY=0.5;entryDx=0;entryDy=0;entryPerimeter=0;fontSize=20;fontColor=#000000;endArrow=none;endFill=0;" parent="1" source="YoIVaU23-7nhwGgL-xl8-2283" target="YoIVaU23-7nhwGgL-xl8-2279" edge="1">
          <mxGeometry relative="1" as="geometry" />
        </mxCell>
        <mxCell id="YoIVaU23-7nhwGgL-xl8-2283" value="Fw" style="shape=mxgraph.cisco.security.pix_firewall;sketch=0;html=1;pointerEvents=1;dashed=0;fillColor=#036897;strokeColor=#ffffff;strokeWidth=2;verticalLabelPosition=bottom;verticalAlign=top;align=center;outlineConnect=0;fontSize=20;fontColor=#000000;" parent="1" vertex="1">
          <mxGeometry x="612" y="630" width="77" height="51" as="geometry" />
        </mxCell>
        <mxCell id="funw83YCfUhnmGR257uU-6" style="edgeStyle=none;rounded=0;orthogonalLoop=1;jettySize=auto;html=1;exitX=0.5;exitY=0;exitDx=0;exitDy=0;exitPerimeter=0;entryX=0.5;entryY=1;entryDx=0;entryDy=0;entryPerimeter=0;endArrow=none;endFill=0;" edge="1" parent="1" source="YoIVaU23-7nhwGgL-xl8-2285" target="funw83YCfUhnmGR257uU-5">
          <mxGeometry relative="1" as="geometry" />
        </mxCell>
        <mxCell id="YoIVaU23-7nhwGgL-xl8-2285" value="RUT/DR-C9K-Intranet" style="shape=mxgraph.cisco.routers.router;html=1;dashed=0;fillColor=#10739E;strokeColor=#ffffff;strokeWidth=2;verticalLabelPosition=bottom;verticalAlign=top;fontFamily=Helvetica;fontSize=20;fontColor=#000000;" parent="1" vertex="1">
          <mxGeometry x="470" y="367" width="78" height="53" as="geometry" />
        </mxCell>
        <mxCell id="YoIVaU23-7nhwGgL-xl8-2319" style="edgeStyle=none;rounded=0;orthogonalLoop=1;jettySize=auto;html=1;exitX=0.5;exitY=0;exitDx=0;exitDy=0;exitPerimeter=0;entryX=0.5;entryY=1;entryDx=0;entryDy=0;entryPerimeter=0;fontSize=20;fontColor=#000000;endArrow=none;endFill=0;" parent="1" source="YoIVaU23-7nhwGgL-xl8-2289" target="YoIVaU23-7nhwGgL-xl8-2315" edge="1">
          <mxGeometry relative="1" as="geometry" />
        </mxCell>
        <mxCell id="z-lyO9U3jf9EHW0gN1C3-3" style="rounded=0;orthogonalLoop=1;jettySize=auto;html=1;exitX=0.5;exitY=1;exitDx=0;exitDy=0;exitPerimeter=0;entryX=1;entryY=0;entryDx=0;entryDy=0;entryPerimeter=0;endArrow=none;endFill=0;" parent="1" source="YoIVaU23-7nhwGgL-xl8-2289" target="YoIVaU23-7nhwGgL-xl8-2279" edge="1">
          <mxGeometry relative="1" as="geometry" />
        </mxCell>
        <mxCell id="funw83YCfUhnmGR257uU-7" style="edgeStyle=none;rounded=0;orthogonalLoop=1;jettySize=auto;html=1;exitX=0.12;exitY=0.1;exitDx=0;exitDy=0;exitPerimeter=0;entryX=0.88;entryY=0.9;entryDx=0;entryDy=0;entryPerimeter=0;endArrow=none;endFill=0;" edge="1" parent="1" source="YoIVaU23-7nhwGgL-xl8-2289" target="funw83YCfUhnmGR257uU-5">
          <mxGeometry relative="1" as="geometry" />
        </mxCell>
        <mxCell id="YoIVaU23-7nhwGgL-xl8-2289" value="RUT-C9K-3/4" style="shape=mxgraph.cisco.routers.router;html=1;dashed=0;fillColor=#10739E;strokeColor=#ffffff;strokeWidth=2;verticalLabelPosition=bottom;verticalAlign=top;fontFamily=Helvetica;fontSize=20;fontColor=#000000;" parent="1" vertex="1">
          <mxGeometry x="612" y="459" width="78" height="53" as="geometry" />
        </mxCell>
        <mxCell id="z-lyO9U3jf9EHW0gN1C3-7" style="edgeStyle=none;rounded=0;orthogonalLoop=1;jettySize=auto;html=1;exitX=0.88;exitY=0.9;exitDx=0;exitDy=0;exitPerimeter=0;entryX=0.16;entryY=0.23;entryDx=0;entryDy=0;entryPerimeter=0;endArrow=none;endFill=0;" parent="1" source="YoIVaU23-7nhwGgL-xl8-2291" target="YoIVaU23-7nhwGgL-xl8-2279" edge="1">
          <mxGeometry relative="1" as="geometry" />
        </mxCell>
        <mxCell id="YoIVaU23-7nhwGgL-xl8-2291" value="RVZ-C9K-1/2&lt;br&gt;?????" style="shape=mxgraph.cisco.routers.router;html=1;dashed=0;fillColor=#10739E;strokeColor=#ffffff;strokeWidth=2;verticalLabelPosition=bottom;verticalAlign=top;fontFamily=Helvetica;fontSize=20;fontColor=#000000;" parent="1" vertex="1">
          <mxGeometry x="120" y="367" width="78" height="53" as="geometry" />
        </mxCell>
        <mxCell id="YoIVaU23-7nhwGgL-xl8-2315" value="GTR11" style="shape=mxgraph.cisco.routers.router;html=1;dashed=0;fillColor=#10739E;strokeColor=#ffffff;strokeWidth=2;verticalLabelPosition=bottom;verticalAlign=top;fontFamily=Helvetica;fontSize=20;fontColor=#000000;" parent="1" vertex="1">
          <mxGeometry x="612" y="160" width="78" height="53" as="geometry" />
        </mxCell>
        <mxCell id="z-lyO9U3jf9EHW0gN1C3-8" style="edgeStyle=none;rounded=0;orthogonalLoop=1;jettySize=auto;html=1;exitX=1;exitY=0.5;exitDx=0;exitDy=0;exitPerimeter=0;entryX=0;entryY=0.5;entryDx=0;entryDy=0;entryPerimeter=0;endArrow=none;endFill=0;" parent="1" source="z-lyO9U3jf9EHW0gN1C3-6" target="YoIVaU23-7nhwGgL-xl8-2291" edge="1">
          <mxGeometry relative="1" as="geometry" />
        </mxCell>
        <mxCell id="z-lyO9U3jf9EHW0gN1C3-6" value="GVZ02/14" style="shape=mxgraph.cisco.routers.router;html=1;dashed=0;fillColor=#10739E;strokeColor=#ffffff;strokeWidth=2;verticalLabelPosition=bottom;verticalAlign=top;fontFamily=Helvetica;fontSize=20;fontColor=#000000;" parent="1" vertex="1">
          <mxGeometry x="-138" y="378" width="78" height="53" as="geometry" />
        </mxCell>
        <mxCell id="funw83YCfUhnmGR257uU-1" value="NPC" style="shape=mxgraph.cisco.storage.cloud;html=1;dashed=0;strokeColor=#23445D;fillColor=#ffffff;strokeWidth=2;fontFamily=Helvetica;fontSize=20;fontColor=#000000;align=center;fontStyle=1;opacity=40;" vertex="1" parent="1">
          <mxGeometry x="59.81" y="470" width="198.38" height="160" as="geometry" />
        </mxCell>
        <mxCell id="funw83YCfUhnmGR257uU-4" style="edgeStyle=none;rounded=0;orthogonalLoop=1;jettySize=auto;html=1;exitX=0.16;exitY=0.23;exitDx=0;exitDy=0;exitPerimeter=0;entryX=0.88;entryY=0.9;entryDx=0;entryDy=0;entryPerimeter=0;endArrow=none;endFill=0;" edge="1" parent="1" source="funw83YCfUhnmGR257uU-2" target="z-lyO9U3jf9EHW0gN1C3-6">
          <mxGeometry relative="1" as="geometry" />
        </mxCell>
        <mxCell id="funw83YCfUhnmGR257uU-2" value="eVPN&lt;br&gt;" style="shape=mxgraph.cisco.switches.workgroup_switch;html=1;dashed=0;fillColor=#10739E;strokeColor=#ffffff;strokeWidth=2;verticalLabelPosition=bottom;verticalAlign=top;fontFamily=Helvetica;fontSize=20;fontColor=#000000;" vertex="1" parent="1">
          <mxGeometry x="108.5" y="572" width="101" height="50" as="geometry" />
        </mxCell>
        <mxCell id="funw83YCfUhnmGR257uU-5" value="GDR11" style="shape=mxgraph.cisco.routers.router;html=1;dashed=0;fillColor=#10739E;strokeColor=#ffffff;strokeWidth=2;verticalLabelPosition=bottom;verticalAlign=top;fontFamily=Helvetica;fontSize=20;fontColor=#000000;" vertex="1" parent="1">
          <mxGeometry x="470" y="160" width="78" height="53" as="geometry" />
        </mxCell>
      </root>
    </mxGraphModel>
  </diagram>
</mxfile>
